# xmcd CD database file
#
# Track frame offsets:
#	150
#	21597
#	61715
#	67046
#	99369
#	133517
#	148511
#	177646
#	195446
#	224903
#
# Disc length: 3099 seconds
#
# Revision: 0
# Processed by: cddbd v1.5.2PL0 Copyright (c) Steve Scherf et al.
# Submitted via: CDex 1.51
#
DISCID=9b0c190a
DTITLE=Stephan-Max Wirth Quartet - Jazzchanson
DYEAR=1998
DGENRE=Jazz
TTITLE0=Koffer in Berlin
TTITLE1=Non, je ne regrette rien - Menhir 1
TTITLE2=Honey, wenn du Geburtstag Hast
TTITLE3=Dutch feelings - Menhir 2
TTITLE4=Parole, parole
TTITLE5=Sans chant
TTITLE6=Menhir 3 - Seidenduft
TTITLE7=Lola
TTITLE8=Vivre avec toi
TTITLE9=Ne me quitte pas
EXTD=YEAR: 1998
EXTT0=
EXTT1=
EXTT2=
EXTT3=
EXTT4=
EXTT5=
EXTT6=
EXTT7=
EXTT8=
EXTT9=
PLAYORDER=
